<svg width="25" height="25" viewBox="0 0 25 25" fill="none" xmlns="http://www.w3.org/2000/svg">
<path d="M4.31653 10.0303V6.03027C4.31653 3.82113 6.10739 2.03027 8.31653 2.03027H12.3165H14.3798C14.9733 2.03027 15.5362 2.29392 15.9162 2.7499L19.853 7.474C20.1525 7.83343 20.3165 8.2865 20.3165 8.75437V12.0303V18.0303C20.3165 20.2394 18.5257 22.0303 16.3165 22.0303H8.31653C6.10739 22.0303 4.31653 20.2394 4.31653 18.0303V15.0303" stroke="#464646" stroke-width="1.5" stroke-linecap="round"/>
<path d="M15.3165 2.53027V6.03027C15.3165 6.58372 15.5413 7.08467 15.9046 7.44677C16.2664 7.80736 16.7654 8.03027 17.3165 8.03027" stroke="#464646" stroke-width="1.5" stroke-linecap="round"/>
<path d="M8.31653 12.0303H12.3165" stroke="#464646" stroke-width="1.5" stroke-linecap="round"/>
<path d="M16.3165 12.0303H15.3165" stroke="#464646" stroke-width="1.5" stroke-linecap="round"/>
<path d="M8.31653 17.0303H12.3165" stroke="#464646" stroke-width="1.5" stroke-linecap="round"/>
</svg>
